<svg width="168" height="65" viewBox="0 0 168 65" fill="none" xmlns="http://www.w3.org/2000/svg">
<path fill-rule="evenodd" clip-rule="evenodd" d="M46.2306 19.9777C47.1498 18.1265 47.6667 16.0403 47.6667 13.8333C47.6667 6.19339 41.4733 0 33.8333 0C26.906 0 21.1679 5.09194 20.1578 11.7372H21.8622H22.1712L22.3094 12.0136C23.0773 13.5493 24.7071 15.8422 27.0755 17.6671C29.4375 19.487 32.5094 20.8241 36.186 20.5177C38.3396 20.3383 41.9238 20.1547 46.2306 19.9777ZM45.6667 21.0018C41.6444 21.1705 38.3087 21.3443 36.2691 21.5143C32.2842 21.8464 28.9714 20.3903 26.4652 18.4592C24.1011 16.6377 22.4326 14.3783 21.5578 12.7372H20.0428C20.0144 13.0988 20 13.4644 20 13.8333C20 21.4733 26.1934 27.6667 33.8333 27.6667C38.849 27.6667 43.2411 24.9974 45.6667 21.0018Z" fill="#242424"/>
<path d="M18.784 17.44V22.432H12.768V40H6.496V22.432H0.544V17.44H18.784ZM27.3765 25.216C28.0805 24.192 28.9338 23.3813 29.9365 22.784C30.9392 22.1867 32.0165 21.888 33.1685 21.888V28.576H31.4085C30.0432 28.576 29.0298 28.8427 28.3685 29.376C27.7072 29.9093 27.3765 30.8373 27.3765 32.16V40H21.1045V22.048H27.3765V25.216ZM34.393 31.008C34.393 29.152 34.7237 27.5307 35.385 26.144C36.0677 24.7573 36.985 23.6907 38.137 22.944C39.3103 22.1973 40.6117 21.824 42.041 21.824C43.2783 21.824 44.345 22.0693 45.241 22.56C46.137 23.0507 46.8303 23.712 47.321 24.544V22.048H53.593V40H47.321V37.504C46.8303 38.336 46.1263 38.9973 45.209 39.488C44.313 39.9787 43.257 40.224 42.041 40.224C40.6117 40.224 39.3103 39.8507 38.137 39.104C36.985 38.3573 36.0677 37.2907 35.385 35.904C34.7237 34.496 34.393 32.864 34.393 31.008ZM47.321 31.008C47.321 29.856 47.001 28.9493 46.361 28.288C45.7423 27.6267 44.9743 27.296 44.057 27.296C43.1183 27.296 42.3397 27.6267 41.721 28.288C41.1023 28.928 40.793 29.8347 40.793 31.008C40.793 32.16 41.1023 33.0773 41.721 33.76C42.3397 34.4213 43.1183 34.752 44.057 34.752C44.9743 34.752 45.7423 34.4213 46.361 33.76C47.001 33.0987 47.321 32.1813 47.321 31.008ZM65.775 34.08L69.135 22.048H75.823L69.647 40H61.839L55.663 22.048H62.351L65.775 34.08ZM95.1003 30.816C95.1003 31.3067 95.0683 31.7973 95.0043 32.288H83.1323C83.1963 33.2693 83.4629 34.0053 83.9323 34.496C84.4229 34.9653 85.0416 35.2 85.7883 35.2C86.8336 35.2 87.5803 34.7307 88.0283 33.792H94.7163C94.4389 35.0293 93.8949 36.1387 93.0843 37.12C92.2949 38.08 91.2923 38.8373 90.0763 39.392C88.8603 39.9467 87.5163 40.224 86.0443 40.224C84.2736 40.224 82.6949 39.8507 81.3083 39.104C79.9429 38.3573 78.8656 37.2907 78.0763 35.904C77.3083 34.5173 76.9243 32.8853 76.9243 31.008C76.9243 29.1307 77.3083 27.5093 78.0763 26.144C78.8443 24.7573 79.9109 23.6907 81.2763 22.944C82.6629 22.1973 84.2523 21.824 86.0443 21.824C87.8149 21.824 89.3829 22.1867 90.7483 22.912C92.1136 23.6373 93.1803 24.6827 93.9483 26.048C94.7163 27.392 95.1003 28.9813 95.1003 30.816ZM88.7003 29.248C88.7003 28.48 88.4443 27.8827 87.9323 27.456C87.4203 27.008 86.7803 26.784 86.0123 26.784C85.2443 26.784 84.6149 26.9973 84.1243 27.424C83.6336 27.8293 83.3136 28.4373 83.1643 29.248H88.7003ZM103.939 16.32V40H97.667V16.32H103.939Z" fill="white"/>
<path d="M122.807 17.44V22.432H113.783V26.4H120.439V31.168H113.783V40H107.511V17.44H122.807ZM143.816 22.048V40H137.512V37.44C136.979 38.2507 136.243 38.912 135.304 39.424C134.366 39.9147 133.288 40.16 132.072 40.16C129.982 40.16 128.328 39.4773 127.112 38.112C125.918 36.7253 125.32 34.848 125.32 32.48V22.048H131.56V31.68C131.56 32.704 131.827 33.5147 132.36 34.112C132.915 34.688 133.64 34.976 134.536 34.976C135.454 34.976 136.179 34.688 136.712 34.112C137.246 33.5147 137.512 32.704 137.512 31.68V22.048H143.816ZM159.13 21.888C161.199 21.888 162.842 22.5813 164.058 23.968C165.274 25.3333 165.882 27.1893 165.882 29.536V40H159.61V30.368C159.61 29.344 159.343 28.544 158.81 27.968C158.276 27.3707 157.562 27.072 156.666 27.072C155.727 27.072 154.991 27.3707 154.458 27.968C153.924 28.544 153.658 29.344 153.658 30.368V40H147.386V22.048H153.658V24.608C154.212 23.7973 154.959 23.1467 155.898 22.656C156.836 22.144 157.914 21.888 159.13 21.888Z" fill="#242424"/>
<path d="M11.764 52.355V53.378H9.729V60H8.475V53.378H6.429V52.355H11.764ZM14.288 54.819C14.4713 54.511 14.7133 54.2727 15.014 54.104C15.322 53.928 15.685 53.84 16.103 53.84V55.138H15.784C15.2927 55.138 14.9187 55.2627 14.662 55.512C14.4127 55.7613 14.288 56.194 14.288 56.81V60H13.034V53.939H14.288V54.819ZM16.8377 56.942C16.8377 56.3333 16.9623 55.7943 17.2117 55.325C17.4683 54.8557 17.813 54.4927 18.2457 54.236C18.6857 53.972 19.1697 53.84 19.6977 53.84C20.1743 53.84 20.5887 53.9353 20.9407 54.126C21.3 54.3093 21.586 54.5403 21.7987 54.819V53.939H23.0637V60H21.7987V59.098C21.586 59.384 21.2963 59.6223 20.9297 59.813C20.563 60.0037 20.145 60.099 19.6757 60.099C19.155 60.099 18.6783 59.967 18.2457 59.703C17.813 59.4317 17.4683 59.0577 17.2117 58.581C16.9623 58.097 16.8377 57.5507 16.8377 56.942ZM21.7987 56.964C21.7987 56.546 21.7107 56.183 21.5347 55.875C21.366 55.567 21.1423 55.3323 20.8637 55.171C20.585 55.0097 20.2843 54.929 19.9617 54.929C19.639 54.929 19.3383 55.0097 19.0597 55.171C18.781 55.325 18.5537 55.556 18.3777 55.864C18.209 56.1647 18.1247 56.524 18.1247 56.942C18.1247 57.36 18.209 57.7267 18.3777 58.042C18.5537 58.3573 18.781 58.5993 19.0597 58.768C19.3457 58.9293 19.6463 59.01 19.9617 59.01C20.2843 59.01 20.585 58.9293 20.8637 58.768C21.1423 58.6067 21.366 58.372 21.5347 58.064C21.7107 57.7487 21.7987 57.382 21.7987 56.964ZM27.0537 58.878L28.7697 53.939H30.1007L27.7907 60H26.2947L23.9957 53.939H25.3377L27.0537 58.878ZM36.6036 56.821C36.6036 57.0483 36.589 57.2537 36.5596 57.437H31.9286C31.9653 57.921 32.145 58.3097 32.4676 58.603C32.7903 58.8963 33.1863 59.043 33.6556 59.043C34.3303 59.043 34.807 58.7607 35.0856 58.196H36.4386C36.2553 58.7533 35.9216 59.2117 35.4376 59.571C34.961 59.923 34.367 60.099 33.6556 60.099C33.0763 60.099 32.5556 59.9707 32.0936 59.714C31.639 59.45 31.2796 59.0833 31.0156 58.614C30.759 58.1373 30.6306 57.5873 30.6306 56.964C30.6306 56.3407 30.7553 55.7943 31.0046 55.325C31.2613 54.8483 31.617 54.4817 32.0716 54.225C32.5336 53.9683 33.0616 53.84 33.6556 53.84C34.2276 53.84 34.7373 53.9647 35.1846 54.214C35.632 54.4633 35.9803 54.8153 36.2296 55.27C36.479 55.7173 36.6036 56.2343 36.6036 56.821ZM35.2946 56.425C35.2873 55.963 35.1223 55.5927 34.7996 55.314C34.477 55.0353 34.0773 54.896 33.6006 54.896C33.168 54.896 32.7976 55.0353 32.4896 55.314C32.1816 55.5853 31.9983 55.9557 31.9396 56.425H35.2946ZM39.0917 51.86V60H37.8377V51.86H39.0917ZM41.3761 53.136C41.1488 53.136 40.9581 53.059 40.8041 52.905C40.6501 52.751 40.5731 52.5603 40.5731 52.333C40.5731 52.1057 40.6501 51.915 40.8041 51.761C40.9581 51.607 41.1488 51.53 41.3761 51.53C41.5961 51.53 41.7831 51.607 41.9371 51.761C42.0911 51.915 42.1681 52.1057 42.1681 52.333C42.1681 52.5603 42.0911 52.751 41.9371 52.905C41.7831 53.059 41.5961 53.136 41.3761 53.136ZM41.9921 53.939V60H40.7381V53.939H41.9921ZM46.6965 53.84C47.1731 53.84 47.5985 53.939 47.9725 54.137C48.3538 54.335 48.6508 54.6283 48.8635 55.017C49.0761 55.4057 49.1825 55.875 49.1825 56.425V60H47.9395V56.612C47.9395 56.0693 47.8038 55.655 47.5325 55.369C47.2611 55.0757 46.8908 54.929 46.4215 54.929C45.9521 54.929 45.5781 55.0757 45.2995 55.369C45.0281 55.655 44.8925 56.0693 44.8925 56.612V60H43.6385V53.939H44.8925V54.632C45.0978 54.3827 45.3581 54.1883 45.6735 54.049C45.9961 53.9097 46.3371 53.84 46.6965 53.84ZM53.224 53.84C53.6934 53.84 54.1077 53.9353 54.467 54.126C54.8337 54.3093 55.1197 54.5403 55.325 54.819V53.939H56.59V60.099C56.59 60.6563 56.4727 61.1513 56.238 61.584C56.0034 62.024 55.6624 62.3687 55.215 62.618C54.775 62.8673 54.247 62.992 53.631 62.992C52.8097 62.992 52.1277 62.7977 51.585 62.409C51.0424 62.0277 50.7344 61.507 50.661 60.847H51.904C51.9994 61.1623 52.201 61.4153 52.509 61.606C52.8244 61.804 53.1984 61.903 53.631 61.903C54.137 61.903 54.544 61.749 54.852 61.441C55.1674 61.133 55.325 60.6857 55.325 60.099V59.087C55.1124 59.373 54.8227 59.615 54.456 59.813C54.0967 60.0037 53.686 60.099 53.224 60.099C52.696 60.099 52.212 59.967 51.772 59.703C51.3394 59.4317 50.9947 59.0577 50.738 58.581C50.4887 58.097 50.364 57.5507 50.364 56.942C50.364 56.3333 50.4887 55.7943 50.738 55.325C50.9947 54.8557 51.3394 54.4927 51.772 54.236C52.212 53.972 52.696 53.84 53.224 53.84ZM55.325 56.964C55.325 56.546 55.237 56.183 55.061 55.875C54.8924 55.567 54.6687 55.3323 54.39 55.171C54.1114 55.0097 53.8107 54.929 53.488 54.929C53.1654 54.929 52.8647 55.0097 52.586 55.171C52.3074 55.325 52.08 55.556 51.904 55.864C51.7354 56.1647 51.651 56.524 51.651 56.942C51.651 57.36 51.7354 57.7267 51.904 58.042C52.08 58.3573 52.3074 58.5993 52.586 58.768C52.872 58.9293 53.1727 59.01 53.488 59.01C53.8107 59.01 54.1114 58.9293 54.39 58.768C54.6687 58.6067 54.8924 58.372 55.061 58.064C55.237 57.7487 55.325 57.382 55.325 56.964ZM67.3755 60H66.1215L62.3485 54.291V60H61.0945V52.344H62.3485L66.1215 58.042V52.344H67.3755V60ZM71.6513 60.099C71.0793 60.099 70.5623 59.9707 70.1003 59.714C69.6383 59.45 69.2753 59.0833 69.0113 58.614C68.7473 58.1373 68.6153 57.5873 68.6153 56.964C68.6153 56.348 68.7509 55.8017 69.0223 55.325C69.2936 54.8483 69.6639 54.4817 70.1333 54.225C70.6026 53.9683 71.1269 53.84 71.7063 53.84C72.2856 53.84 72.8099 53.9683 73.2793 54.225C73.7486 54.4817 74.1189 54.8483 74.3903 55.325C74.6616 55.8017 74.7973 56.348 74.7973 56.964C74.7973 57.58 74.6579 58.1263 74.3793 58.603C74.1006 59.0797 73.7193 59.45 73.2353 59.714C72.7586 59.9707 72.2306 60.099 71.6513 60.099ZM71.6513 59.01C71.9739 59.01 72.2746 58.933 72.5533 58.779C72.8393 58.625 73.0703 58.394 73.2463 58.086C73.4223 57.778 73.5103 57.404 73.5103 56.964C73.5103 56.524 73.4259 56.1537 73.2573 55.853C73.0886 55.545 72.8649 55.314 72.5863 55.16C72.3076 55.006 72.0069 54.929 71.6843 54.929C71.3616 54.929 71.0609 55.006 70.7823 55.16C70.5109 55.314 70.2946 55.545 70.1333 55.853C69.9719 56.1537 69.8913 56.524 69.8913 56.964C69.8913 57.6167 70.0563 58.1227 70.3863 58.482C70.7236 58.834 71.1453 59.01 71.6513 59.01ZM84.1769 53.939L82.2959 60H80.9759L79.7549 55.523L78.5339 60H77.2139L75.3219 53.939H76.5979L77.8629 58.812L79.1499 53.939H80.4589L81.6909 58.79L82.9449 53.939H84.1769ZM94.0765 52.355V60H92.8225V56.656H89.2255V60H87.9715V52.355H89.2255V55.633H92.8225V52.355H94.0765ZM95.3093 56.942C95.3093 56.3333 95.434 55.7943 95.6833 55.325C95.94 54.8557 96.2847 54.4927 96.7173 54.236C97.1573 53.972 97.6413 53.84 98.1693 53.84C98.646 53.84 99.0603 53.9353 99.4123 54.126C99.7717 54.3093 100.058 54.5403 100.27 54.819V53.939H101.535V60H100.27V59.098C100.058 59.384 99.768 59.6223 99.4013 59.813C99.0347 60.0037 98.6167 60.099 98.1473 60.099C97.6267 60.099 97.15 59.967 96.7173 59.703C96.2847 59.4317 95.94 59.0577 95.6833 58.581C95.434 58.097 95.3093 57.5507 95.3093 56.942ZM100.27 56.964C100.27 56.546 100.182 56.183 100.006 55.875C99.8377 55.567 99.614 55.3323 99.3353 55.171C99.0567 55.0097 98.756 54.929 98.4333 54.929C98.1107 54.929 97.81 55.0097 97.5313 55.171C97.2527 55.325 97.0253 55.556 96.8493 55.864C96.6807 56.1647 96.5963 56.524 96.5963 56.942C96.5963 57.36 96.6807 57.7267 96.8493 58.042C97.0253 58.3573 97.2527 58.5993 97.5313 58.768C97.8173 58.9293 98.118 59.01 98.4333 59.01C98.756 59.01 99.0567 58.9293 99.3353 58.768C99.614 58.6067 99.8377 58.372 100.006 58.064C100.182 57.7487 100.27 57.382 100.27 56.964ZM105.525 58.878L107.241 53.939H108.572L106.262 60H104.766L102.467 53.939H103.809L105.525 58.878ZM115.075 56.821C115.075 57.0483 115.061 57.2537 115.031 57.437H110.4C110.437 57.921 110.617 58.3097 110.939 58.603C111.262 58.8963 111.658 59.043 112.127 59.043C112.802 59.043 113.279 58.7607 113.557 58.196H114.91C114.727 58.7533 114.393 59.2117 113.909 59.571C113.433 59.923 112.839 60.099 112.127 60.099C111.548 60.099 111.027 59.9707 110.565 59.714C110.111 59.45 109.751 59.0833 109.487 58.614C109.231 58.1373 109.102 57.5873 109.102 56.964C109.102 56.3407 109.227 55.7943 109.476 55.325C109.733 54.8483 110.089 54.4817 110.543 54.225C111.005 53.9683 111.533 53.84 112.127 53.84C112.699 53.84 113.209 53.9647 113.656 54.214C114.104 54.4633 114.452 54.8153 114.701 55.27C114.951 55.7173 115.075 56.2343 115.075 56.821ZM113.766 56.425C113.759 55.963 113.594 55.5927 113.271 55.314C112.949 55.0353 112.549 54.896 112.072 54.896C111.64 54.896 111.269 55.0353 110.961 55.314C110.653 55.5853 110.47 55.9557 110.411 56.425H113.766ZM123.666 52.355V53.378H120.421V55.633H122.951V56.656H120.421V60H119.167V52.355H123.666ZM130.317 53.939V60H129.063V59.285C128.865 59.5343 128.605 59.7323 128.282 59.879C127.967 60.0183 127.629 60.088 127.27 60.088C126.793 60.088 126.364 59.989 125.983 59.791C125.609 59.593 125.312 59.2997 125.092 58.911C124.879 58.5223 124.773 58.053 124.773 57.503V53.939H126.016V57.316C126.016 57.8587 126.152 58.2767 126.423 58.57C126.694 58.856 127.065 58.999 127.534 58.999C128.003 58.999 128.374 58.856 128.645 58.57C128.924 58.2767 129.063 57.8587 129.063 57.316V53.939H130.317ZM135.029 53.84C135.506 53.84 135.931 53.939 136.305 54.137C136.687 54.335 136.984 54.6283 137.196 55.017C137.409 55.4057 137.515 55.875 137.515 56.425V60H136.272V56.612C136.272 56.0693 136.137 55.655 135.865 55.369C135.594 55.0757 135.224 54.929 134.754 54.929C134.285 54.929 133.911 55.0757 133.632 55.369C133.361 55.655 133.225 56.0693 133.225 56.612V60H131.971V53.939H133.225V54.632C133.431 54.3827 133.691 54.1883 134.006 54.049C134.329 53.9097 134.67 53.84 135.029 53.84Z" fill="white"/>
</svg>
